<svg version="1.1" id="Layer_1" xmlns="http://www.w3.org/2000/svg" xmlns:xlink="http://www.w3.org/1999/xlink" x="0px" y="0px"
	 width="100%" viewBox="0 0 538 206" enable-background="new 0 0 538 206" xml:space="preserve">
<path fill="#F4F4F4" opacity="1.000000" stroke="none" 
	d="
M366.000000,207.000000 
	C244.000000,207.000000 122.500000,207.000000 1.000000,207.000000 
	C1.000000,138.333328 1.000000,69.666664 1.000000,1.000000 
	C180.333328,1.000000 359.666656,1.000000 539.000000,1.000000 
	C539.000000,69.666664 539.000000,138.333328 539.000000,207.000000 
	C481.500000,207.000000 424.000000,207.000000 366.000000,207.000000 
M288.516754,195.484650 
	C288.516754,195.484650 288.578735,195.398270 289.293427,195.692963 
	C293.046875,193.780502 293.774261,190.679123 292.609161,186.009872 
	C292.676331,183.038010 292.743500,180.066132 293.338867,176.719864 
	C292.747314,175.535919 292.155762,174.351990 291.251678,172.713318 
	C291.125763,172.178955 290.999847,171.644592 290.908875,170.376953 
	C287.778046,165.365662 284.943481,164.572708 279.603546,167.399887 
	C279.603546,167.399887 279.404633,167.225601 278.805786,167.303711 
	C278.602417,167.628494 278.399017,167.953278 277.913910,168.799271 
	C277.281097,169.549820 276.648254,170.300354 275.429810,171.085098 
	C275.312408,171.730804 275.195038,172.376511 275.090759,173.721146 
	C274.808960,174.844101 274.527191,175.967056 273.509308,177.164291 
	C272.663666,179.111069 271.817993,181.057846 270.079224,182.994125 
	C267.392853,183.011017 264.706451,183.027924 261.592590,182.570419 
	C261.082001,183.806412 260.571381,185.042404 260.060791,186.278397 
	C260.706055,186.527054 261.351288,186.775726 262.894745,187.104614 
	C265.592621,187.094742 268.290527,187.084869 271.420074,187.607513 
	C272.903503,189.374115 274.386902,191.140717 276.094513,192.998520 
	C276.094513,192.998520 276.082428,193.238281 276.005768,193.897858 
	C277.335876,194.936584 278.666016,195.975311 280.830231,197.092255 
	C283.011749,196.974609 285.193298,196.856964 288.015381,196.645569 
	C288.150177,196.273026 288.284943,195.900482 288.516754,195.484650 
M207.975693,172.397720 
	C207.975693,172.397720 207.912033,172.808060 207.242737,173.125702 
	C206.122482,176.027542 205.002213,178.929398 203.837341,181.887390 
	C203.837341,181.887390 203.852600,181.957458 203.230179,182.204590 
	C202.929016,183.516083 202.627853,184.827560 202.057007,186.596786 
	C202.049301,186.773712 202.041611,186.950623 201.447113,187.495819 
	C200.253616,190.537415 199.060120,193.578995 197.866623,196.620590 
	C198.186844,196.924286 198.507080,197.227982 198.827301,197.531693 
	C199.848801,196.735764 200.870300,195.939835 202.182968,194.412949 
	C202.461685,193.839874 202.916229,193.288574 202.990417,192.690155 
	C203.449036,188.989975 204.875702,186.691833 209.220474,187.090363 
	C213.146881,187.450531 217.677933,185.952774 218.225815,192.421509 
	C218.334320,193.702789 221.214630,194.749313 223.285583,195.674835 
	C222.894485,194.972946 222.503403,194.271057 222.195862,193.378403 
	C222.195862,193.378403 222.113953,193.186935 222.342987,192.357834 
	C219.301361,184.695770 216.259720,177.033722 213.064728,168.773590 
	C207.910324,164.494827 209.662521,170.767166 207.975693,172.397720 
M301.114990,191.214783 
	C301.390533,193.127197 301.666077,195.039627 302.435211,197.151627 
	C302.599762,197.085129 302.764313,197.018631 303.637390,196.760193 
	C305.318542,190.821930 306.999695,184.883667 309.037720,178.321884 
	C309.700317,176.854416 310.362915,175.386948 311.512726,173.515106 
	C312.067688,171.454910 317.315643,170.448502 312.038757,166.963959 
	C307.361420,167.010208 302.684113,167.056458 297.436981,166.916489 
	C297.260712,167.224594 297.084412,167.532715 296.552277,168.559814 
	C296.687958,169.062943 296.823669,169.566071 296.984406,170.660019 
	C297.335510,170.701324 297.686646,170.742615 298.923706,170.971573 
	C301.947754,170.988892 304.971802,171.006210 308.118927,171.757294 
	C307.437469,173.500900 306.756012,175.244507 305.920654,177.565811 
	C305.733459,178.028488 305.546295,178.491150 305.024689,179.627731 
	C303.878662,183.341583 302.732605,187.055450 301.114990,191.214783 
M241.637543,197.173477 
	C242.160400,195.992477 242.989014,194.851074 243.148087,193.622955 
	C243.601746,190.120377 243.782928,186.582520 244.966522,183.073090 
	C247.943924,182.978867 250.921341,182.884644 254.574768,182.903595 
	C255.912796,181.398636 257.031158,179.935196 253.019897,179.065582 
	C250.026672,179.036819 247.033432,179.008041 243.788071,178.111664 
	C243.923447,175.774887 244.058838,173.438095 245.085602,171.160751 
	C249.103073,170.674622 253.120560,170.188492 257.751068,169.705200 
	C257.505798,168.986313 257.260529,168.267410 256.171844,167.106873 
	C250.918167,167.106873 245.664490,167.106873 240.074875,167.106873 
	C240.074875,168.994537 240.074875,170.442856 239.701569,172.744507 
	C239.844330,174.882065 239.987091,177.019608 239.976746,179.883118 
	C240.021027,180.867737 240.065308,181.852371 239.695633,183.720749 
	C240.135117,188.137177 240.574600,192.553589 241.637543,197.173477 
M190.246124,176.911819 
	C190.521606,182.234161 190.680542,187.566803 191.150177,192.871964 
	C191.276001,194.293304 192.349655,195.630753 193.852890,197.037430 
	C194.228226,196.551193 194.925797,196.068390 194.931030,195.578232 
	C195.022552,186.992920 195.094772,178.405701 194.960266,169.822189 
	C194.945740,168.895081 193.626068,167.988419 192.163376,166.854324 
	C189.518631,167.871750 186.161194,173.571930 187.080917,175.892929 
	C187.239090,176.292084 188.941818,176.079178 190.246124,176.911819 
M333.938843,166.936249 
	C333.576599,167.183929 333.214355,167.431595 332.718872,167.776260 
	C332.718872,167.776260 332.729950,167.940704 332.073639,168.239731 
	C331.982666,174.045334 331.765625,179.852722 331.847595,185.655884 
	C331.897461,189.188736 332.408295,192.715088 333.297302,196.908981 
	C337.865295,196.936646 342.433289,196.964310 347.792908,197.189941 
	C348.240173,196.267838 348.860504,195.373459 349.015656,194.404572 
	C349.055542,194.155472 347.630066,193.671707 345.985474,193.164520 
	C342.658844,193.061935 339.332184,192.959335 335.979797,191.940994 
	C335.895447,189.482559 335.873871,187.020035 335.714020,184.566513 
	C335.349854,178.977448 334.917847,173.392822 334.448151,167.542786 
	C334.448151,167.542786 334.197723,167.437759 333.938843,166.936249 
M361.328949,167.273788 
	C358.495483,170.058243 355.662018,172.842697 352.828552,175.627151 
	C353.177704,176.089905 353.526855,176.552643 353.876007,177.015396 
	C355.877045,176.532959 357.878113,176.050537 359.761719,176.427353 
	C359.760193,182.073059 359.639099,187.723221 359.848938,193.361053 
	C359.895996,194.625061 361.101440,195.845963 361.773560,197.086700 
	C362.323334,195.890762 363.326691,194.703201 363.348999,193.497498 
	C363.490295,185.862656 363.469696,178.222870 363.345764,170.587280 
	C363.328857,169.544159 362.439453,168.515213 361.328949,167.273788 
M276.396637,157.629868 
	C276.429413,107.677864 276.463623,57.725857 276.478058,7.773846 
	C276.478241,7.175723 276.222931,6.577527 276.114868,6.102338 
	C273.734772,6.102338 271.669403,6.102338 269.217896,6.102338 
	C269.217896,56.863140 269.217896,107.285622 269.108246,158.474411 
	C271.475098,158.479828 273.841980,158.485229 276.396637,157.629868 
M356.295288,148.472183 
	C356.295288,101.043427 356.295288,53.614662 356.295288,6.155479 
	C352.399536,6.155479 349.038605,6.155479 345.891357,6.155479 
	C345.891357,57.233185 345.891357,107.920174 345.891357,158.579468 
	C349.489349,158.579468 352.594055,158.579468 356.295319,158.579468 
	C356.295319,155.363953 356.295319,152.411530 356.295288,148.472183 
M319.302399,6.012918 
	C316.042938,6.012918 312.783478,6.012918 309.546112,6.012918 
	C309.546112,57.091496 309.546112,107.778305 309.546112,158.466370 
	C313.185486,158.466370 316.410736,158.466370 319.936584,158.466370 
	C319.936584,107.628204 319.936584,57.184372 319.302399,6.012918 
M294.645081,104.500168 
	C294.645081,71.722664 294.645081,38.945160 294.645081,6.140318 
	C290.723511,6.140318 287.335754,6.140318 284.230713,6.140318 
	C284.230713,57.208523 284.230713,107.901726 284.230713,158.592957 
	C287.813568,158.592957 290.915192,158.592957 294.645050,158.592957 
	C294.645050,140.721420 294.645050,123.110802 294.645081,104.500168 
M265.631500,83.500183 
	C265.631500,57.718754 265.631500,31.937326 265.631500,6.141429 
	C261.706787,6.141429 258.317169,6.141429 255.222290,6.141429 
	C255.222290,57.212120 255.222290,107.906471 255.222290,158.591797 
	C258.809174,158.591797 261.910461,158.591797 265.631439,158.591797 
	C265.631439,133.718292 265.631439,109.109238 265.631500,83.500183 
M388.918365,131.500000 
	C388.918365,140.439453 388.918365,149.378922 388.918365,158.546326 
	C392.786407,158.546326 396.007477,158.546326 399.516144,158.546326 
	C399.516144,107.535698 399.516144,56.840366 399.516144,6.188584 
	C395.838409,6.188584 392.463623,6.188584 388.918365,6.188584 
	C388.918365,47.907227 388.918365,89.203613 388.918365,131.500000 
M225.726044,124.499893 
	C225.726044,135.775909 225.726044,147.051910 225.726044,158.567459 
	C229.582642,158.567459 232.805847,158.567459 236.322388,158.567459 
	C236.322388,107.552513 236.322388,56.831577 236.322388,6.162078 
	C232.647614,6.162078 229.254623,6.162078 225.726028,6.162078 
	C225.726028,45.538567 225.726028,84.519226 225.726044,124.499893 
M425.202728,136.500000 
	C425.202728,93.076393 425.202728,49.652794 425.202728,6.150393 
	C421.324402,6.150393 417.963379,6.150393 414.779510,6.150393 
	C414.779510,57.219151 414.779510,107.902306 414.779510,158.587036 
	C418.361023,158.587036 421.465698,158.587036 425.202728,158.587036 
	C425.202728,151.385590 425.202728,144.442749 425.202728,136.500000 
M454.211609,99.500069 
	C454.211609,68.404182 454.211609,37.308300 454.211609,6.155923 
	C450.323273,6.155923 446.962555,6.155923 443.796600,6.155923 
	C443.796600,57.228165 443.796600,107.909515 443.796600,158.581955 
	C447.383484,158.581955 450.488892,158.581955 454.211609,158.581955 
	C454.211609,139.039719 454.211609,119.769897 454.211609,99.500069 
M145.943970,101.500000 
	C145.943970,120.432137 145.943970,139.364273 145.943970,158.550751 
	C149.797531,158.550751 153.019470,158.550751 156.538269,158.550751 
	C156.538269,107.548531 156.538269,56.856686 156.538269,6.184045 
	C152.876846,6.184045 149.504059,6.184045 145.943970,6.184045 
	C145.943970,37.900917 145.943970,69.200455 145.943970,101.500000 
M59.168007,158.860397 
	C63.406128,159.331436 62.531799,156.234100 62.532909,153.904648 
	C62.555740,105.972084 62.551903,58.039509 62.540497,10.106934 
	C62.540188,8.805176 62.397305,7.503453 62.314270,6.088727 
	C58.689877,6.088727 55.301304,6.088727 52.019955,6.088727 
	C52.019955,57.079689 52.019955,107.747452 52.019955,158.861084 
	C54.338501,158.861084 56.298458,158.861084 59.168007,158.860397 
M501.345795,76.499840 
	C501.345795,103.772156 501.345795,131.044464 501.345795,158.565460 
	C505.202454,158.565460 508.427826,158.565460 511.945099,158.565460 
	C511.945099,107.571472 511.945099,56.873447 511.945099,5.970691 
	C508.416687,5.970691 505.148834,5.970691 501.345825,5.970691 
	C501.345825,29.272795 501.345825,52.386314 501.345795,76.499840 
M439.759094,60.500072 
	C439.759094,42.376369 439.759094,24.252665 439.759094,5.928559 
	C437.113068,5.928559 434.998383,5.928559 432.675964,5.928559 
	C432.675964,56.879139 432.675964,107.626007 432.675964,158.638428 
	C435.035278,158.638428 437.096619,158.638428 439.759094,158.638428 
	C439.759094,126.068291 439.759094,93.784180 439.759094,60.500072 
M298.205322,97.499939 
	C298.205322,117.785057 298.205322,138.070175 298.205322,158.638702 
	C300.875458,158.638702 302.938354,158.638702 305.295166,158.638702 
	C305.295166,107.628883 305.295166,56.879673 305.295166,5.931388 
	C302.968597,5.931388 300.855591,5.931388 298.205322,5.931388 
	C298.205322,36.257729 298.205322,66.378822 298.205322,97.499939 
M334.514496,102.499710 
	C334.514496,121.111160 334.514496,139.722610 334.514496,158.547028 
	C337.117432,158.547028 339.172028,158.547028 341.508087,158.547028 
	C341.508087,107.545174 341.508087,56.858482 341.508087,5.974681 
	C339.155426,5.974681 337.045868,5.974681 334.514496,5.974681 
	C334.514496,37.954884 334.514496,69.727287 334.514496,102.499710 
M490.485504,52.500298 
	C490.485504,37.052822 490.485504,21.605347 490.485504,5.991121 
	C487.910950,5.991121 485.808228,5.991121 483.508484,5.991121 
	C483.508484,56.903194 483.508484,107.588852 483.508484,158.568207 
	C485.860474,158.568207 487.912567,158.568207 490.485504,158.568207 
	C490.485504,123.356239 490.485504,88.428276 490.485504,52.500298 
M465.080658,48.499989 
	C465.080658,85.192810 465.080658,121.885628 465.080658,158.561356 
	C467.954163,158.561356 469.878601,158.561356 472.066132,158.561356 
	C472.066132,107.586990 472.066132,56.906265 472.066132,6.185551 
	C469.671753,6.185551 467.488800,6.185551 465.080658,6.185551 
	C465.080658,20.233513 465.080658,33.866749 465.080658,48.499989 
M385.306946,101.500137 
	C385.306946,69.750267 385.306946,38.000393 385.306946,6.168759 
	C382.674469,6.168759 380.488617,6.168759 378.492371,6.168759 
	C378.492371,57.230865 378.492371,107.892502 378.492371,158.573059 
	C380.872467,158.573059 382.799591,158.573059 385.306976,158.573059 
	C385.306976,139.698105 385.306976,121.099121 385.306946,101.500137 
M4.994616,28.500042 
	C4.994616,71.907547 4.994616,115.315056 4.994616,158.587891 
	C7.583072,158.587891 9.363583,158.587891 11.459002,158.587891 
	C11.459002,107.587326 11.459002,56.861965 11.459002,5.950360 
	C9.269951,5.950360 7.335919,5.950360 4.994616,5.950360 
	C4.994616,13.231443 4.994616,20.365774 4.994616,28.500042 
M523.109192,87.499977 
	C523.109192,111.088898 523.109192,134.677826 523.109192,158.557281 
	C525.633179,158.557281 527.538330,158.557281 529.723938,158.557281 
	C529.723938,107.640221 529.723938,56.786892 529.723938,6.003672 
	C527.526733,6.003672 525.579407,6.003672 523.109253,6.003672 
	C523.109253,32.988453 523.109253,59.744213 523.109192,87.499977 
M66.162666,41.499962 
	C66.162666,80.407928 66.162666,119.315903 66.162666,158.538544 
	C68.778648,158.538544 70.819504,158.538544 73.145248,158.538544 
	C73.145248,107.600128 73.145248,56.918152 73.145248,6.182866 
	C70.769722,6.182866 68.587616,6.182866 66.162674,6.182866 
	C66.162674,17.897135 66.162674,29.198547 66.162666,41.499962 
M214.849274,103.499954 
	C214.849274,121.876762 214.849274,140.253571 214.849274,158.521210 
	C217.736694,158.521210 219.660202,158.521210 221.836395,158.521210 
	C221.836395,107.520744 221.836395,56.855492 221.836395,6.019766 
	C219.479324,6.019766 217.402283,6.019766 214.849258,6.019766 
	C214.849258,38.345669 214.849258,70.422806 214.849274,103.499954 
M185.844467,14.554461 
	C185.844467,11.773800 185.844467,8.993140 185.844467,6.165599 
	C183.089600,6.165599 180.890015,6.165599 179.035614,6.165599 
	C179.035614,57.250946 179.035614,107.938553 179.035614,158.545792 
	C181.412796,158.545792 183.335754,158.545792 185.844452,158.545792 
	C185.844452,110.672714 185.844452,63.107620 185.844467,14.554461 
M113.315430,81.500137 
	C113.315430,56.411312 113.315430,31.322489 113.315430,6.179215 
	C110.654793,6.179215 108.471909,6.179215 106.514603,6.179215 
	C106.514603,57.250000 106.514603,107.909920 106.514603,158.565521 
	C108.910896,158.565521 110.837212,158.565521 113.315445,158.565521 
	C113.315445,133.020035 113.315445,107.760094 113.315430,81.500137 
M135.066895,154.210205 
	C135.181702,155.641434 135.296509,157.072662 135.420578,158.619537 
	C137.802383,158.619537 139.729279,158.619537 141.965302,158.619537 
	C141.965302,107.578407 141.965302,56.773453 141.965302,6.131996 
	C139.515396,6.131996 137.448700,6.131996 135.483444,6.131996 
	C135.286865,6.796832 135.117218,7.102917 135.117065,7.409091 
	C135.092285,56.029102 135.079697,104.649117 135.066895,154.210205 
M91.418762,74.499817 
	C91.418755,100.318115 91.418709,126.136414 91.418846,151.954712 
	C91.418854,153.120697 91.186447,154.350708 91.483284,155.435730 
	C91.820351,156.667770 92.631554,157.770096 93.236633,158.928818 
	C93.923523,157.848328 94.757034,156.829010 95.242844,155.664627 
	C95.538979,154.954865 95.300568,154.021652 95.300575,153.188812 
	C95.300743,105.716423 95.300743,58.244038 95.300728,10.771652 
	C95.300728,9.938804 95.579880,8.959585 95.237640,8.305736 
	C94.652977,7.188755 93.678574,6.275771 92.867874,5.277104 
	C92.384865,5.567156 91.901855,5.857208 91.418846,6.147260 
	C91.418846,28.598108 91.418846,51.048954 91.418762,74.499817 
M367.286560,20.508770 
	C367.284790,16.345774 367.378937,12.178584 367.197296,8.023449 
	C367.162506,7.227275 366.042206,6.478554 365.422699,5.707942 
	C364.756287,6.429941 363.825653,7.050043 363.496948,7.902293 
	C363.161011,8.773322 363.412018,9.872092 363.412018,10.871169 
	C363.411438,58.329609 363.411377,105.788048 363.412140,153.246490 
	C363.412140,154.245560 363.155151,155.349777 363.496735,156.216217 
	C363.895538,157.227753 364.820892,158.031693 365.517853,158.925705 
	C366.102386,158.079803 366.982239,157.302734 367.199341,156.371185 
	C367.494080,155.106583 367.285950,153.723740 367.285980,152.391617 
	C367.286682,108.763153 367.286499,65.134697 367.286560,20.508770 
M247.624023,22.502640 
	C247.620911,17.675234 247.702225,12.844809 247.529709,8.023470 
	C247.501678,7.240362 246.349182,6.497488 245.716446,5.736007 
	C245.066452,6.472723 244.158691,7.113336 243.838211,7.972909 
	C243.510910,8.850821 243.757355,9.943674 243.757355,10.942432 
	C243.756943,58.384132 243.756943,105.825836 243.757645,153.267532 
	C243.757660,154.266266 243.494003,155.374954 243.841614,156.235016 
	C244.247803,157.240005 245.190735,158.028061 245.900803,158.910217 
	C246.469238,158.052963 247.323593,157.260529 247.536209,156.322617 
	C247.823608,155.054779 247.623260,153.675232 247.623291,152.343613 
	C247.624191,109.396393 247.624008,66.449173 247.624023,22.502640 
M403.318420,42.499886 
	C403.318481,79.782349 403.298157,117.064865 403.391632,154.347092 
	C403.395447,155.869217 404.470978,157.388657 405.047211,158.909363 
	C405.755371,157.518158 407.079529,156.128311 407.082611,154.735535 
	C407.189606,106.301910 407.186584,57.867977 407.089783,9.434316 
	C407.087311,8.200181 405.859253,6.968495 405.202789,5.735672 
	C404.574799,7.004956 403.419464,8.266989 403.401886,9.544656 
	C403.255432,20.194765 403.318573,30.847757 403.318420,42.499886 
M203.862534,146.483795 
	C203.863068,149.313049 203.668594,152.161758 203.947983,154.963211 
	C204.083694,156.324005 205.106079,157.596390 205.727066,158.908798 
	C206.388062,157.638901 207.132782,156.403137 207.671036,155.083191 
	C207.903824,154.512329 207.710541,153.767654 207.710541,153.101944 
	C207.710571,105.836090 207.710663,58.570229 207.709991,11.304371 
	C207.709961,10.139430 207.967880,8.883874 207.612320,7.838280 
	C207.329056,7.005249 206.292328,6.428427 205.590088,5.737864 
	C205.019669,6.386909 204.112991,6.963303 203.953583,7.701142 
	C203.678543,8.974234 203.863251,10.347673 203.863235,11.679009 
	C203.862381,56.282001 203.862503,100.884995 203.862534,146.483795 
M15.288123,155.994827 
	C15.914721,156.965912 16.541321,157.936996 17.167919,158.908081 
	C17.821587,157.962875 18.638075,157.085876 19.072536,156.048843 
	C19.369558,155.339859 19.136024,154.407700 19.136032,153.575317 
	C19.136456,105.962830 19.136875,58.350346 19.134357,10.737863 
	C19.134295,9.573128 19.277267,8.366282 19.012827,7.260559 
	C18.870129,6.663891 17.925007,5.768558 17.481981,5.842884 
	C16.710390,5.972333 15.610132,6.628121 15.432139,7.278100 
	C15.091741,8.521141 15.286102,9.914975 15.286032,11.246229 
	C15.283473,59.191669 15.284095,107.137108 15.288123,155.994827 
M163.969864,84.500000 
	C163.969864,107.131989 163.969757,129.763977 163.970108,152.395966 
	C163.970139,153.560837 163.742325,154.789581 164.040955,155.872665 
	C164.340988,156.960938 165.167007,157.904205 165.762527,158.911011 
	C166.447754,157.827469 167.233185,156.791046 167.774384,155.639801 
	C168.030884,155.094162 167.821732,154.329132 167.821732,153.663483 
	C167.821915,105.903305 167.821976,58.143124 167.821533,10.382946 
	C167.821533,9.550900 168.073120,8.594774 167.747208,7.918173 
	C167.338730,7.070132 166.454071,6.451451 165.774963,5.733780 
	C165.175812,6.527689 164.298920,7.243697 164.048813,8.135494 
	C163.745743,9.216082 163.970215,10.445245 163.970184,11.610117 
	C163.969757,35.573410 163.969849,59.536705 163.969864,84.500000 
M127.930122,121.500008 
	C127.930054,84.225266 127.947884,46.950478 127.856094,9.675964 
	C127.852852,8.359663 126.761879,7.046040 126.177872,5.731166 
	C125.478806,6.930390 124.170937,8.128327 124.168404,9.329022 
	C124.065750,57.919121 124.065765,106.509491 124.164749,155.099609 
	C124.167336,156.369675 125.413658,157.637207 126.079956,158.905930 
	C126.696365,157.586960 127.829735,156.274933 127.847572,154.947922 
	C127.992935,144.133545 127.929802,133.316345 127.930122,121.500008 
M475.861176,156.090515 
	C476.518951,157.029602 477.176697,157.968689 477.834442,158.907791 
	C478.455994,157.932098 479.185791,157.005066 479.655182,155.960953 
	C479.904449,155.406448 479.703430,154.648911 479.703430,153.983032 
	C479.703644,106.039101 479.703705,58.095173 479.702576,10.151246 
	C479.702545,9.319089 479.911072,8.394677 479.617004,7.680087 
	C479.307404,6.927631 478.510468,6.375713 477.926483,5.736164 
	C477.238739,6.436364 476.222412,7.028000 475.946198,7.864162 
	C475.598785,8.915734 475.854126,10.167344 475.854126,11.332634 
	C475.854248,59.276562 475.854950,107.220490 475.861176,156.090515 
M86.514824,158.912674 
	C87.022270,157.483856 87.970985,156.055740 87.973274,154.626114 
	C88.050491,106.345734 88.055008,58.065163 87.948448,9.784888 
	C87.945465,8.432739 86.614998,7.083521 85.903526,5.732938 
	C85.332077,7.061547 84.263382,8.389277 84.261024,9.718891 
	C84.175575,57.999256 84.176697,106.279816 84.250641,154.560211 
	C84.252861,156.010788 85.160622,157.459976 86.514824,158.912674 
M48.144562,11.602552 
	C48.143883,10.603899 48.375031,9.529972 48.081631,8.626364 
	C47.743454,7.584833 46.942123,6.693687 46.341927,5.737232 
	C45.660187,6.785469 44.874832,7.784301 44.341335,8.903221 
	C44.082615,9.445842 44.295502,10.213497 44.295498,10.879274 
	C44.295441,58.315887 44.295376,105.752502 44.295898,153.189117 
	C44.295910,154.187744 44.039223,155.288010 44.375004,156.158524 
	C44.768837,157.179550 45.680637,158.000793 46.367775,158.908691 
	C46.953686,158.066666 47.835716,157.294052 48.053284,156.365707 
	C48.349419,155.102158 48.143715,153.719681 48.143742,152.388214 
	C48.144707,105.783821 48.144566,59.179432 48.144562,11.602552 
M519.616638,68.500168 
	C519.616638,55.848541 519.617065,43.196915 519.616455,30.545290 
	C519.616089,23.220659 519.681458,15.894641 519.530701,8.573089 
	C519.510986,7.615549 518.378296,6.680923 517.761108,5.735678 
	C517.090088,6.619261 516.298645,7.440518 515.796265,8.411382 
	C515.524170,8.937237 515.743591,9.718170 515.743591,10.384041 
	C515.743469,58.160641 515.743469,105.937241 515.745056,153.713837 
	C515.745117,154.712463 515.501770,155.817459 515.849915,156.679916 
	C516.200562,157.548676 517.148254,158.176437 517.834351,158.909790 
	C518.414062,158.238312 519.325195,157.642181 519.498840,156.878372 
	C519.787354,155.609283 519.614746,154.232544 519.614868,152.901138 
	C519.617249,125.100815 519.616516,97.300499 519.616638,68.500168 
M30.014421,155.136063 
	C30.014923,107.194855 30.015503,59.253643 30.015484,11.312435 
	C30.015482,10.147213 30.274357,8.892418 29.921099,7.845156 
	C29.639311,7.009777 28.607571,6.427368 27.908730,5.732667 
	C27.333561,6.384838 26.454571,6.956521 26.255409,7.708303 
	C25.966524,8.798765 26.162432,10.019331 26.162405,11.184406 
	C26.161346,58.459766 26.161472,105.735123 26.161741,153.010483 
	C26.161745,154.009247 25.921814,155.091980 26.229956,155.985046 
	C26.595854,157.045502 27.434580,157.942810 28.068401,158.910828 
	C28.715408,157.956696 29.362415,157.002563 30.014421,155.136063 
M323.651886,112.499832 
	C323.651886,118.331520 323.651367,124.163216 323.651978,129.994904 
	C323.652924,138.492493 323.584015,146.991409 323.743683,155.486023 
	C323.764130,156.573563 324.976349,157.638702 325.636505,158.714218 
	C326.181671,157.686737 326.864594,156.704803 327.224579,155.616104 
	C327.473083,154.864670 327.276489,153.965607 327.276489,153.132507 
	C327.276703,105.645981 327.276733,58.159451 327.276123,10.672924 
	C327.276123,9.673230 327.488068,8.602332 327.194672,7.696273 
	C326.957977,6.965422 326.133728,5.980452 325.520569,5.944051 
	C324.936951,5.909407 323.944519,6.860103 323.748901,7.552050 
	C323.443115,8.633497 323.652679,9.862076 323.652649,11.028326 
	C323.651733,44.518826 323.651886,78.009323 323.651886,112.499832 
M196.723267,72.499878 
	C196.723267,99.158997 196.722931,125.818115 196.724350,152.477234 
	C196.724426,153.810104 196.502914,155.205032 196.830063,156.454407 
	C197.054810,157.312698 198.051361,157.968887 198.702942,158.715408 
	C199.241013,158.024414 200.019119,157.405731 200.254715,156.623642 
	C200.531631,155.704361 200.346558,154.643250 200.346588,153.643646 
	C200.348099,105.823883 200.363159,58.004089 200.275711,10.184479 
	C200.273056,8.727031 199.200485,7.271538 198.626709,5.815139 
	C197.992279,7.215864 196.813370,8.613423 196.805206,10.017788 
	C196.686035,30.511280 196.723297,51.005684 196.723267,72.499878 
M168.541138,191.243774 
	C168.564896,191.906265 168.427673,192.627869 168.644867,193.219330 
	C169.145721,194.583420 169.818604,195.884354 170.421707,197.210907 
	C171.082367,195.872925 172.231995,194.563141 172.311111,193.191605 
	C172.539551,189.231400 172.251968,185.244247 172.348663,181.272095 
	C172.383072,179.858688 172.574692,177.489914 173.317169,177.210251 
	C177.781296,175.528778 175.609970,172.321213 174.906494,169.964569 
	C174.503998,168.616272 172.283051,167.810806 170.880829,166.760941 
	C170.112595,167.990616 168.726974,169.196930 168.679428,170.453873 
	C168.429352,177.064011 168.517426,183.686920 168.541138,191.243774 
M183.138535,187.364685 
	C182.440125,187.667206 181.479370,188.418488 181.090652,188.191254 
	C179.720642,187.390335 178.546844,186.253754 177.298630,185.244507 
	C177.084686,185.479660 176.870758,185.714828 176.656830,185.949982 
	C178.180023,189.611710 179.703217,193.273438 181.168335,196.795532 
	C187.575851,192.805756 186.196808,185.995285 188.003952,180.425201 
	C187.594971,180.227081 187.185989,180.028976 186.776993,179.830856 
	C185.668732,182.115433 184.560471,184.399994 183.138535,187.364685 
M230.387726,187.210693 
	C232.000473,186.385803 233.613220,185.560913 235.225983,184.736023 
	C233.910736,184.132996 232.566666,182.984253 231.286819,183.051849 
	C229.247406,183.159500 227.250748,184.077011 225.236008,184.652039 
	C226.664795,185.504776 228.093597,186.357513 230.387726,187.210693 
M320.997406,182.927887 
	C319.924805,183.607986 318.852173,184.288101 317.779572,184.968201 
	C318.811859,185.714783 319.749512,186.764557 320.902527,187.124268 
	C322.100098,187.497894 323.615021,187.518661 324.789337,187.111542 
	C325.911713,186.722458 326.774475,185.584457 327.751343,184.775604 
	C326.766266,184.161636 325.846466,183.353088 324.775909,182.994019 
	C323.888824,182.696518 322.823975,182.929031 320.997406,182.927887 
z"/>
<path fill="#0D0D0D" opacity="1.000000" stroke="none" 
	d="
M356.295288,148.965652 
	C356.295319,152.411530 356.295319,155.363953 356.295319,158.579468 
	C352.594055,158.579468 349.489349,158.579468 345.891357,158.579468 
	C345.891357,107.920174 345.891357,57.233185 345.891357,6.155479 
	C349.038605,6.155479 352.399536,6.155479 356.295288,6.155479 
	C356.295288,53.614662 356.295288,101.043427 356.295288,148.965652 
z"/>
<path fill="#0D0D0D" opacity="1.000000" stroke="none" 
	d="
M319.619507,6.376729 
	C319.936584,57.184372 319.936584,107.628204 319.936584,158.466370 
	C316.410736,158.466370 313.185486,158.466370 309.546112,158.466370 
	C309.546112,107.778305 309.546112,57.091496 309.546112,6.012918 
	C312.783478,6.012918 316.042938,6.012918 319.619507,6.376729 
z"/>
<path fill="#0C0C0C" opacity="1.000000" stroke="none" 
	d="
M294.645081,105.000175 
	C294.645050,123.110802 294.645050,140.721420 294.645050,158.592957 
	C290.915192,158.592957 287.813568,158.592957 284.230713,158.592957 
	C284.230713,107.901726 284.230713,57.208523 284.230713,6.140318 
	C287.335754,6.140318 290.723511,6.140318 294.645081,6.140318 
	C294.645081,38.945160 294.645081,71.722664 294.645081,105.000175 
z"/>
<path fill="#0D0D0D" opacity="1.000000" stroke="none" 
	d="
M265.631470,84.000183 
	C265.631439,109.109238 265.631439,133.718292 265.631439,158.591797 
	C261.910461,158.591797 258.809174,158.591797 255.222290,158.591797 
	C255.222290,107.906471 255.222290,57.212120 255.222290,6.141429 
	C258.317169,6.141429 261.706787,6.141429 265.631500,6.141429 
	C265.631500,31.937326 265.631500,57.718754 265.631470,84.000183 
z"/>
<path fill="#0D0D0D" opacity="1.000000" stroke="none" 
	d="
M388.918365,131.000000 
	C388.918365,89.203613 388.918365,47.907227 388.918365,6.188584 
	C392.463623,6.188584 395.838409,6.188584 399.516144,6.188584 
	C399.516144,56.840366 399.516144,107.535698 399.516144,158.546326 
	C396.007477,158.546326 392.786407,158.546326 388.918365,158.546326 
	C388.918365,149.378922 388.918365,140.439453 388.918365,131.000000 
z"/>
<path fill="#0D0D0D" opacity="1.000000" stroke="none" 
	d="
M225.726044,123.999893 
	C225.726028,84.519226 225.726028,45.538567 225.726028,6.162078 
	C229.254623,6.162078 232.647614,6.162078 236.322388,6.162078 
	C236.322388,56.831577 236.322388,107.552513 236.322388,158.567459 
	C232.805847,158.567459 229.582642,158.567459 225.726044,158.567459 
	C225.726044,147.051910 225.726044,135.775909 225.726044,123.999893 
z"/>
<path fill="#0D0D0D" opacity="1.000000" stroke="none" 
	d="
M425.202728,136.999954 
	C425.202728,144.442749 425.202728,151.385590 425.202728,158.587036 
	C421.465698,158.587036 418.361023,158.587036 414.779510,158.587036 
	C414.779510,107.902306 414.779510,57.219151 414.779510,6.150393 
	C417.963379,6.150393 421.324402,6.150393 425.202728,6.150393 
	C425.202728,49.652794 425.202728,93.076393 425.202728,136.999954 
z"/>
<path fill="#0C0C0C" opacity="1.000000" stroke="none" 
	d="
M454.211609,100.000076 
	C454.211609,119.769897 454.211609,139.039719 454.211609,158.581955 
	C450.488892,158.581955 447.383484,158.581955 443.796600,158.581955 
	C443.796600,107.909515 443.796600,57.228165 443.796600,6.155923 
	C446.962555,6.155923 450.323273,6.155923 454.211609,6.155923 
	C454.211609,37.308300 454.211609,68.404182 454.211609,100.000076 
z"/>
<path fill="#0C0C0C" opacity="1.000000" stroke="none" 
	d="
M145.943970,101.000000 
	C145.943970,69.200455 145.943970,37.900917 145.943970,6.184045 
	C149.504059,6.184045 152.876846,6.184045 156.538269,6.184045 
	C156.538269,56.856686 156.538269,107.548531 156.538269,158.550751 
	C153.019470,158.550751 149.797531,158.550751 145.943970,158.550751 
	C145.943970,139.364273 145.943970,120.432137 145.943970,101.000000 
z"/>
<path fill="#0C0C0C" opacity="1.000000" stroke="none" 
	d="
M58.713211,158.860748 
	C56.298458,158.861084 54.338501,158.861084 52.019955,158.861084 
	C52.019955,107.747452 52.019955,57.079689 52.019955,6.088727 
	C55.301304,6.088727 58.689877,6.088727 62.314270,6.088727 
	C62.397305,7.503453 62.540188,8.805176 62.540497,10.106934 
	C62.551903,58.039509 62.555740,105.972084 62.532909,153.904648 
	C62.531799,156.234100 63.406128,159.331436 58.713211,158.860748 
z"/>
<path fill="#0D0D0D" opacity="1.000000" stroke="none" 
	d="
M501.345825,75.999832 
	C501.345825,52.386314 501.345825,29.272795 501.345825,5.970691 
	C505.148834,5.970691 508.416687,5.970691 511.945099,5.970691 
	C511.945099,56.873447 511.945099,107.571472 511.945099,158.565460 
	C508.427826,158.565460 505.202454,158.565460 501.345795,158.565460 
	C501.345795,131.044464 501.345795,103.772156 501.345825,75.999832 
z"/>
<path fill="#1C1C1C" opacity="1.000000" stroke="none" 
	d="
M439.759094,61.000076 
	C439.759094,93.784180 439.759094,126.068291 439.759094,158.638428 
	C437.096619,158.638428 435.035278,158.638428 432.675964,158.638428 
	C432.675964,107.626007 432.675964,56.879139 432.675964,5.928559 
	C434.998383,5.928559 437.113068,5.928559 439.759094,5.928559 
	C439.759094,24.252665 439.759094,42.376369 439.759094,61.000076 
z"/>
<path fill="#1C1C1C" opacity="1.000000" stroke="none" 
	d="
M298.205322,96.999931 
	C298.205322,66.378822 298.205322,36.257729 298.205322,5.931388 
	C300.855591,5.931388 302.968597,5.931388 305.295166,5.931388 
	C305.295166,56.879673 305.295166,107.628883 305.295166,158.638702 
	C302.938354,158.638702 300.875458,158.638702 298.205322,158.638702 
	C298.205322,138.070175 298.205322,117.785057 298.205322,96.999931 
z"/>
<path fill="#0D0D0D" opacity="1.000000" stroke="none" 
	d="
M334.514496,101.999702 
	C334.514496,69.727287 334.514496,37.954884 334.514496,5.974681 
	C337.045868,5.974681 339.155426,5.974681 341.508087,5.974681 
	C341.508087,56.858482 341.508087,107.545174 341.508087,158.547028 
	C339.172028,158.547028 337.117432,158.547028 334.514496,158.547028 
	C334.514496,139.722610 334.514496,121.111160 334.514496,101.999702 
z"/>
<path fill="#0D0D0D" opacity="1.000000" stroke="none" 
	d="
M490.485504,53.000305 
	C490.485504,88.428276 490.485504,123.356239 490.485504,158.568207 
	C487.912567,158.568207 485.860474,158.568207 483.508484,158.568207 
	C483.508484,107.588852 483.508484,56.903194 483.508484,5.991121 
	C485.808228,5.991121 487.910950,5.991121 490.485504,5.991121 
	C490.485504,21.605347 490.485504,37.052822 490.485504,53.000305 
z"/>
<path fill="#0E0E0E" opacity="1.000000" stroke="none" 
	d="
M269.217896,157.708099 
	C269.217896,107.285622 269.217896,56.863140 269.217896,6.102338 
	C271.669403,6.102338 273.734772,6.102338 276.114868,6.102338 
	C276.222931,6.577527 276.478241,7.175723 276.478058,7.773846 
	C276.463623,57.725857 276.429413,107.677864 275.854980,158.087936 
	C273.281525,158.266708 271.249725,157.987396 269.217896,157.708099 
z"/>
<path fill="#0C0C0C" opacity="1.000000" stroke="none" 
	d="
M465.080658,47.999985 
	C465.080658,33.866749 465.080658,20.233513 465.080658,6.185551 
	C467.488800,6.185551 469.671753,6.185551 472.066132,6.185551 
	C472.066132,56.906265 472.066132,107.586990 472.066132,158.561356 
	C469.878601,158.561356 467.954163,158.561356 465.080658,158.561356 
	C465.080658,121.885628 465.080658,85.192810 465.080658,47.999985 
z"/>
<path fill="#0C0C0C" opacity="1.000000" stroke="none" 
	d="
M385.306946,102.000137 
	C385.306976,121.099121 385.306976,139.698105 385.306976,158.573059 
	C382.799591,158.573059 380.872467,158.573059 378.492371,158.573059 
	C378.492371,107.892502 378.492371,57.230865 378.492371,6.168759 
	C380.488617,6.168759 382.674469,6.168759 385.306946,6.168759 
	C385.306946,38.000393 385.306946,69.750267 385.306946,102.000137 
z"/>
<path fill="#0D0D0D" opacity="1.000000" stroke="none" 
	d="
M4.994616,28.000072 
	C4.994616,20.365774 4.994616,13.231443 4.994616,5.950360 
	C7.335919,5.950360 9.269951,5.950360 11.459002,5.950360 
	C11.459002,56.861965 11.459002,107.587326 11.459002,158.587891 
	C9.363583,158.587891 7.583072,158.587891 4.994616,158.587891 
	C4.994616,115.315056 4.994616,71.907547 4.994616,28.000072 
z"/>
<path fill="#0B0B0B" opacity="1.000000" stroke="none" 
	d="
M523.109253,86.999969 
	C523.109253,59.744213 523.109253,32.988453 523.109253,6.003672 
	C525.579407,6.003672 527.526733,6.003672 529.723938,6.003672 
	C529.723938,56.786892 529.723938,107.640221 529.723938,158.557281 
	C527.538330,158.557281 525.633179,158.557281 523.109192,158.557281 
	C523.109192,134.677826 523.109192,111.088898 523.109253,86.999969 
z"/>
<path fill="#0C0C0C" opacity="1.000000" stroke="none" 
	d="
M66.162674,40.999962 
	C66.162674,29.198547 66.162674,17.897135 66.162674,6.182866 
	C68.587616,6.182866 70.769722,6.182866 73.145248,6.182866 
	C73.145248,56.918152 73.145248,107.600128 73.145248,158.538544 
	C70.819504,158.538544 68.778648,158.538544 66.162666,158.538544 
	C66.162666,119.315903 66.162666,80.407928 66.162674,40.999962 
z"/>
<path fill="#0C0C0C" opacity="1.000000" stroke="none" 
	d="
M214.849274,102.999954 
	C214.849258,70.422806 214.849258,38.345669 214.849258,6.019766 
	C217.402283,6.019766 219.479324,6.019766 221.836395,6.019766 
	C221.836395,56.855492 221.836395,107.520744 221.836395,158.521210 
	C219.660202,158.521210 217.736694,158.521210 214.849274,158.521210 
	C214.849274,140.253571 214.849274,121.876762 214.849274,102.999954 
z"/>
<path fill="#0C0C0C" opacity="1.000000" stroke="none" 
	d="
M185.844452,15.048494 
	C185.844452,63.107620 185.844452,110.672714 185.844452,158.545792 
	C183.335754,158.545792 181.412796,158.545792 179.035614,158.545792 
	C179.035614,107.938553 179.035614,57.250946 179.035614,6.165599 
	C180.890015,6.165599 183.089600,6.165599 185.844467,6.165599 
	C185.844467,8.993140 185.844467,11.773800 185.844452,15.048494 
z"/>
<path fill="#0C0C0C" opacity="1.000000" stroke="none" 
	d="
M113.315437,82.000137 
	C113.315445,107.760094 113.315445,133.020035 113.315445,158.565521 
	C110.837212,158.565521 108.910896,158.565521 106.514603,158.565521 
	C106.514603,107.909920 106.514603,57.250000 106.514603,6.179215 
	C108.471909,6.179215 110.654793,6.179215 113.315430,6.179215 
	C113.315430,31.322489 113.315430,56.411312 113.315437,82.000137 
z"/>
<path fill="#0C0C0C" opacity="1.000000" stroke="none" 
	d="
M135.066742,153.739670 
	C135.079697,104.649117 135.092285,56.029102 135.117065,7.409091 
	C135.117218,7.102917 135.286865,6.796832 135.483444,6.131996 
	C137.448700,6.131996 139.515396,6.131996 141.965302,6.131996 
	C141.965302,56.773453 141.965302,107.578407 141.965302,158.619537 
	C139.729279,158.619537 137.802383,158.619537 135.420578,158.619537 
	C135.296509,157.072662 135.181702,155.641434 135.066742,153.739670 
z"/>
<path fill="#2A2A2A" opacity="1.000000" stroke="none" 
	d="
M91.418808,73.999809 
	C91.418846,51.048954 91.418846,28.598108 91.418846,6.147260 
	C91.901855,5.857208 92.384865,5.567156 92.867874,5.277104 
	C93.678574,6.275771 94.652977,7.188755 95.237640,8.305736 
	C95.579880,8.959585 95.300728,9.938804 95.300728,10.771652 
	C95.300743,58.244038 95.300743,105.716423 95.300575,153.188812 
	C95.300568,154.021652 95.538979,154.954865 95.242844,155.664627 
	C94.757034,156.829010 93.923523,157.848328 93.236633,158.928818 
	C92.631554,157.770096 91.820351,156.667770 91.483284,155.435730 
	C91.186447,154.350708 91.418854,153.120697 91.418846,151.954712 
	C91.418709,126.136414 91.418755,100.318115 91.418808,73.999809 
z"/>
<path fill="#2A2A2A" opacity="1.000000" stroke="none" 
	d="
M367.286499,21.007500 
	C367.286499,65.134697 367.286682,108.763153 367.285980,152.391617 
	C367.285950,153.723740 367.494080,155.106583 367.199341,156.371185 
	C366.982239,157.302734 366.102386,158.079803 365.517822,158.925690 
	C364.820892,158.031693 363.895538,157.227753 363.496735,156.216217 
	C363.155151,155.349777 363.412140,154.245560 363.412140,153.246490 
	C363.411377,105.788048 363.411438,58.329609 363.412018,10.871169 
	C363.412018,9.872092 363.161011,8.773322 363.496948,7.902293 
	C363.825653,7.050043 364.756287,6.429941 365.422699,5.707942 
	C366.042206,6.478554 367.162506,7.227275 367.197296,8.023449 
	C367.378937,12.178584 367.284790,16.345774 367.286499,21.007500 
z"/>
<path fill="#2A2A2A" opacity="1.000000" stroke="none" 
	d="
M247.624008,23.002295 
	C247.624008,66.449173 247.624191,109.396393 247.623291,152.343613 
	C247.623260,153.675232 247.823608,155.054779 247.536209,156.322617 
	C247.323593,157.260529 246.469238,158.052963 245.900803,158.910217 
	C245.190735,158.028061 244.247803,157.240005 243.841614,156.235016 
	C243.494003,155.374954 243.757660,154.266266 243.757645,153.267532 
	C243.756943,105.825836 243.756943,58.384132 243.757355,10.942432 
	C243.757355,9.943674 243.510910,8.850821 243.838211,7.972909 
	C244.158691,7.113336 245.066452,6.472723 245.716431,5.736012 
	C246.349182,6.497488 247.501678,7.240362 247.529709,8.023470 
	C247.702225,12.844809 247.620911,17.675234 247.624008,23.002295 
z"/>
<path fill="#2A2A2A" opacity="1.000000" stroke="none" 
	d="
M403.318420,41.999882 
	C403.318573,30.847757 403.255432,20.194765 403.401886,9.544656 
	C403.419464,8.266989 404.574799,7.004956 405.202759,5.735670 
	C405.859253,6.968495 407.087311,8.200181 407.089783,9.434316 
	C407.186584,57.867977 407.189606,106.301910 407.082611,154.735535 
	C407.079529,156.128311 405.755371,157.518158 405.047180,158.909363 
	C404.470978,157.388657 403.395447,155.869217 403.391632,154.347092 
	C403.298157,117.064865 403.318481,79.782349 403.318420,41.999882 
z"/>
<path fill="#2A2A2A" opacity="1.000000" stroke="none" 
	d="
M203.862518,145.985901 
	C203.862503,100.884995 203.862381,56.282001 203.863235,11.679009 
	C203.863251,10.347673 203.678543,8.974234 203.953583,7.701142 
	C204.112991,6.963303 205.019669,6.386909 205.590088,5.737865 
	C206.292328,6.428427 207.329056,7.005249 207.612320,7.838280 
	C207.967880,8.883874 207.709961,10.139430 207.709991,11.304371 
	C207.710663,58.570229 207.710571,105.836090 207.710541,153.101944 
	C207.710541,153.767654 207.903824,154.512329 207.671036,155.083191 
	C207.132782,156.403137 206.388062,157.638901 205.727066,158.908798 
	C205.106079,157.596390 204.083694,156.324005 203.947983,154.963211 
	C203.668594,152.161758 203.863068,149.313049 203.862518,145.985901 
z"/>
<path fill="#2A2A2A" opacity="1.000000" stroke="none" 
	d="
M15.286200,155.538696 
	C15.284095,107.137108 15.283473,59.191669 15.286032,11.246229 
	C15.286102,9.914975 15.091741,8.521141 15.432139,7.278100 
	C15.610132,6.628121 16.710390,5.972333 17.481981,5.842884 
	C17.925007,5.768558 18.870129,6.663891 19.012827,7.260559 
	C19.277267,8.366282 19.134295,9.573128 19.134357,10.737863 
	C19.136875,58.350346 19.136456,105.962830 19.136032,153.575317 
	C19.136024,154.407700 19.369558,155.339859 19.072536,156.048843 
	C18.638075,157.085876 17.821587,157.962875 17.167919,158.908081 
	C16.541321,157.936996 15.914721,156.965912 15.286200,155.538696 
z"/>
<path fill="#2A2A2A" opacity="1.000000" stroke="none" 
	d="
M163.969849,84.000000 
	C163.969849,59.536705 163.969757,35.573410 163.970184,11.610117 
	C163.970215,10.445245 163.745743,9.216082 164.048813,8.135494 
	C164.298920,7.243697 165.175812,6.527689 165.774963,5.733776 
	C166.454071,6.451451 167.338730,7.070132 167.747208,7.918173 
	C168.073120,8.594774 167.821533,9.550900 167.821533,10.382946 
	C167.821976,58.143124 167.821915,105.903305 167.821732,153.663483 
	C167.821732,154.329132 168.030884,155.094162 167.774384,155.639801 
	C167.233185,156.791046 166.447754,157.827469 165.762543,158.911011 
	C165.167007,157.904205 164.340988,156.960938 164.040955,155.872665 
	C163.742325,154.789581 163.970139,153.560837 163.970108,152.395966 
	C163.969757,129.763977 163.969864,107.131989 163.969849,84.000000 
z"/>
<path fill="#2A2A2A" opacity="1.000000" stroke="none" 
	d="
M127.930115,122.000015 
	C127.929802,133.316345 127.992935,144.133545 127.847572,154.947922 
	C127.829735,156.274933 126.696365,157.586960 126.079956,158.905930 
	C125.413658,157.637207 124.167336,156.369675 124.164749,155.099609 
	C124.065765,106.509491 124.065750,57.919121 124.168404,9.329022 
	C124.170937,8.128327 125.478806,6.930390 126.177872,5.731167 
	C126.761879,7.046040 127.852852,8.359663 127.856094,9.675964 
	C127.947884,46.950478 127.930054,84.225266 127.930115,122.000015 
z"/>
<path fill="#2A2A2A" opacity="1.000000" stroke="none" 
	d="
M475.858368,155.627472 
	C475.854950,107.220490 475.854248,59.276562 475.854126,11.332634 
	C475.854126,10.167344 475.598785,8.915734 475.946198,7.864162 
	C476.222412,7.028000 477.238739,6.436364 477.926483,5.736170 
	C478.510468,6.375713 479.307404,6.927631 479.617004,7.680087 
	C479.911072,8.394677 479.702545,9.319089 479.702576,10.151246 
	C479.703705,58.095173 479.703644,106.039101 479.703430,153.983032 
	C479.703430,154.648911 479.904449,155.406448 479.655182,155.960953 
	C479.185791,157.005066 478.455994,157.932098 477.834442,158.907776 
	C477.176697,157.968689 476.518951,157.029602 475.858368,155.627472 
z"/>
<path fill="#2A2A2A" opacity="1.000000" stroke="none" 
	d="
M86.080505,158.911255 
	C85.160622,157.459976 84.252861,156.010788 84.250641,154.560211 
	C84.176697,106.279816 84.175575,57.999256 84.261024,9.718891 
	C84.263382,8.389277 85.332077,7.061547 85.903526,5.732938 
	C86.614998,7.083521 87.945465,8.432739 87.948448,9.784888 
	C88.055008,58.065163 88.050491,106.345734 87.973274,154.626114 
	C87.970985,156.055740 87.022270,157.483856 86.080505,158.911255 
z"/>
<path fill="#2A2A2A" opacity="1.000000" stroke="none" 
	d="
M48.144569,12.088795 
	C48.144566,59.179432 48.144707,105.783821 48.143742,152.388214 
	C48.143715,153.719681 48.349419,155.102158 48.053284,156.365707 
	C47.835716,157.294052 46.953686,158.066666 46.367775,158.908691 
	C45.680637,158.000793 44.768837,157.179550 44.375004,156.158524 
	C44.039223,155.288010 44.295910,154.187744 44.295898,153.189117 
	C44.295376,105.752502 44.295441,58.315887 44.295498,10.879274 
	C44.295502,10.213497 44.082615,9.445842 44.341335,8.903221 
	C44.874832,7.784301 45.660187,6.785469 46.341927,5.737233 
	C46.942123,6.693687 47.743454,7.584833 48.081631,8.626364 
	C48.375031,9.529972 48.143883,10.603899 48.144569,12.088795 
z"/>
<path fill="#2A2A2A" opacity="1.000000" stroke="none" 
	d="
M519.616577,69.000168 
	C519.616516,97.300499 519.617249,125.100815 519.614868,152.901138 
	C519.614746,154.232544 519.787354,155.609283 519.498840,156.878372 
	C519.325195,157.642181 518.414062,158.238312 517.834351,158.909790 
	C517.148254,158.176437 516.200562,157.548676 515.849915,156.679916 
	C515.501770,155.817459 515.745117,154.712463 515.745056,153.713837 
	C515.743469,105.937241 515.743469,58.160641 515.743591,10.384041 
	C515.743591,9.718170 515.524170,8.937237 515.796265,8.411382 
	C516.298645,7.440518 517.090088,6.619261 517.761108,5.735682 
	C518.378296,6.680923 519.510986,7.615549 519.530701,8.573089 
	C519.681458,15.894641 519.616089,23.220659 519.616455,30.545290 
	C519.617065,43.196915 519.616638,55.848541 519.616577,69.000168 
z"/>
<path fill="#2A2A2A" opacity="1.000000" stroke="none" 
	d="
M30.011921,155.592255 
	C29.362415,157.002563 28.715408,157.956696 28.068403,158.910828 
	C27.434580,157.942810 26.595854,157.045502 26.229956,155.985046 
	C25.921814,155.091980 26.161745,154.009247 26.161741,153.010483 
	C26.161472,105.735123 26.161346,58.459766 26.162405,11.184406 
	C26.162432,10.019331 25.966524,8.798765 26.255409,7.708303 
	C26.454571,6.956521 27.333561,6.384838 27.908730,5.732667 
	C28.607571,6.427368 29.639311,7.009777 29.921099,7.845156 
	C30.274357,8.892418 30.015482,10.147213 30.015484,11.312435 
	C30.015503,59.253643 30.014923,107.194855 30.011921,155.592255 
z"/>
<path fill="#090909" opacity="1.000000" stroke="none" 
	d="
M323.651886,111.999832 
	C323.651886,78.009323 323.651733,44.518826 323.652649,11.028326 
	C323.652679,9.862076 323.443115,8.633497 323.748901,7.552050 
	C323.944519,6.860103 324.936951,5.909407 325.520569,5.944051 
	C326.133728,5.980452 326.957977,6.965422 327.194672,7.696273 
	C327.488068,8.602332 327.276123,9.673230 327.276123,10.672924 
	C327.276733,58.159451 327.276703,105.645981 327.276489,153.132507 
	C327.276489,153.965607 327.473083,154.864670 327.224579,155.616104 
	C326.864594,156.704803 326.181671,157.686737 325.636505,158.714218 
	C324.976349,157.638702 323.764130,156.573563 323.743683,155.486023 
	C323.584015,146.991409 323.652924,138.492493 323.651978,129.994904 
	C323.651367,124.163216 323.651886,118.331520 323.651886,111.999832 
z"/>
<path fill="#090909" opacity="1.000000" stroke="none" 
	d="
M196.723267,71.999878 
	C196.723297,51.005684 196.686035,30.511280 196.805206,10.017788 
	C196.813370,8.613423 197.992279,7.215864 198.626709,5.815136 
	C199.200485,7.271538 200.273056,8.727031 200.275711,10.184479 
	C200.363159,58.004089 200.348099,105.823883 200.346588,153.643646 
	C200.346558,154.643250 200.531631,155.704361 200.254715,156.623642 
	C200.019119,157.405731 199.241013,158.024414 198.702942,158.715408 
	C198.051361,157.968887 197.054810,157.312698 196.830063,156.454407 
	C196.502914,155.205032 196.724426,153.810104 196.724350,152.477234 
	C196.722931,125.818115 196.723267,99.158997 196.723267,71.999878 
z"/>
<path fill="#E1E6E7" opacity="1.000000" stroke="none" 
	d="
M275.870331,192.907318 
	C274.386902,191.140717 272.903503,189.374115 271.293152,186.934082 
	C271.101593,185.175308 271.036957,184.089966 270.972321,183.004623 
	C271.817993,181.057846 272.663666,179.111069 273.942047,177.570023 
	C274.562378,181.067902 274.750000,184.160034 274.937592,187.252182 
	C275.616058,187.221375 276.294525,187.190567 276.972961,187.159760 
	C277.069427,185.150665 276.942657,183.099197 277.314026,181.142273 
	C277.887604,178.119629 278.801941,175.161621 279.956848,172.082611 
	C285.442078,170.609756 288.058716,172.067108 288.505463,177.261032 
	C288.837646,181.122772 288.291992,185.060043 288.091095,189.349243 
	C286.433929,190.859253 284.454651,193.207275 283.287903,192.856049 
	C280.779785,192.101089 278.690308,189.955566 275.870331,187.989456 
	C275.870331,189.551117 275.870331,191.229218 275.870331,192.907318 
z"/>
<path fill="#3A3D3C" opacity="1.000000" stroke="none" 
	d="
M168.514618,190.774597 
	C168.517426,183.686920 168.429352,177.064011 168.679428,170.453873 
	C168.726974,169.196930 170.112595,167.990616 170.880829,166.760941 
	C172.283051,167.810806 174.503998,168.616272 174.906494,169.964569 
	C175.609970,172.321213 177.781296,175.528778 173.317169,177.210251 
	C172.574692,177.489914 172.383072,179.858688 172.348663,181.272095 
	C172.251968,185.244247 172.539551,189.231400 172.311111,193.191605 
	C172.231995,194.563141 171.082367,195.872925 170.421707,197.210907 
	C169.818604,195.884354 169.145721,194.583420 168.644867,193.219330 
	C168.427673,192.627869 168.564896,191.906265 168.514618,190.774597 
z"/>
<path fill="#1C1C1C" opacity="1.000000" stroke="none" 
	d="
M222.816696,195.904114 
	C221.214630,194.749313 218.334320,193.702789 218.225815,192.421509 
	C217.677933,185.952774 213.146881,187.450531 209.220474,187.090363 
	C204.875702,186.691833 203.449036,188.989975 202.990417,192.690155 
	C202.916229,193.288574 202.461685,193.839874 201.793060,194.488647 
	C201.613388,192.085419 201.823639,189.606476 202.033905,187.127548 
	C202.041611,186.950623 202.049301,186.773712 202.534500,186.263306 
	C203.292191,184.605713 203.572403,183.281586 203.852600,181.957458 
	C203.852600,181.957458 203.837341,181.887390 204.186142,181.927734 
	C205.377762,182.210327 206.220566,182.452576 207.493225,182.824951 
	C209.786774,182.955093 211.650513,182.955093 213.599182,182.955093 
	C213.767776,180.879654 213.895523,179.307144 214.389130,177.826691 
	C215.621323,179.631744 216.519241,181.329620 217.347290,183.060944 
	C218.956909,186.426361 220.527298,189.810532 222.113953,193.186935 
	C222.113953,193.186935 222.195862,193.378403 222.058640,193.792358 
	C222.219833,194.772232 222.518265,195.338181 222.816696,195.904114 
z"/>
<path fill="#414A5E" opacity="1.000000" stroke="none" 
	d="
M288.137329,188.963669 
	C288.291992,185.060043 288.837646,181.122772 288.505463,177.261032 
	C288.058716,172.067108 285.442078,170.609756 280.118286,171.736511 
	C280.351166,170.929306 280.807709,170.374634 281.688538,169.788635 
	C285.033203,170.208298 287.953552,170.659271 290.873962,171.110229 
	C290.999847,171.644592 291.125763,172.178955 291.383698,173.294769 
	C291.947388,174.948914 292.379028,176.021591 292.810669,177.094269 
	C292.743500,180.066132 292.676331,183.038010 292.447998,186.704865 
	C291.324585,189.445755 290.362366,191.491653 289.283173,193.146362 
	C288.823242,191.491348 288.480286,190.227509 288.137329,188.963669 
z"/>
<path fill="#66666A" opacity="1.000000" stroke="none" 
	d="
M183.295364,187.024628 
	C184.560471,184.399994 185.668732,182.115433 186.776993,179.830856 
	C187.185989,180.028976 187.594971,180.227081 188.003952,180.425201 
	C186.196808,185.995285 187.575851,192.805756 181.168335,196.795532 
	C179.703217,193.273438 178.180023,189.611710 176.656830,185.949982 
	C176.870758,185.714828 177.084686,185.479660 177.298630,185.244507 
	C178.546844,186.253754 179.720642,187.390335 181.090652,188.191254 
	C181.479370,188.418488 182.440125,187.667206 183.295364,187.024628 
z"/>
<path fill="#1C1C1C" opacity="1.000000" stroke="none" 
	d="
M307.995850,171.023529 
	C304.971802,171.006210 301.947754,170.988892 298.394226,170.648529 
	C297.613495,170.061691 297.311676,169.976273 296.959351,170.069199 
	C296.823669,169.566071 296.687958,169.062943 296.978088,168.199890 
	C297.751556,167.714233 297.952515,167.468491 298.006775,167.102707 
	C302.684113,167.056458 307.361420,167.010208 312.447296,167.474823 
	C312.245728,169.963608 311.635651,171.941559 311.025543,173.919495 
	C310.362915,175.386948 309.700317,176.854416 308.600067,178.662842 
	C307.739532,179.308960 307.316650,179.614136 306.690552,179.808929 
	C306.111267,179.450317 305.735168,179.202072 305.359100,178.953827 
	C305.546295,178.491150 305.733459,178.028488 306.322693,177.198761 
	C307.784058,175.034775 311.456696,173.809738 307.995850,171.023529 
z"/>
<path fill="#090909" opacity="1.000000" stroke="none" 
	d="
M336.005554,192.856750 
	C339.332184,192.959335 342.658844,193.061935 346.498535,193.601257 
	C347.008179,195.022659 347.004730,196.007309 347.001282,196.991974 
	C342.433289,196.964310 337.865295,196.936646 333.156677,196.115479 
	C332.920685,186.194870 332.825317,177.067795 332.729950,167.940704 
	C332.729950,167.940704 332.718872,167.776260 333.136475,167.749451 
	C333.768616,167.627686 333.983154,167.532730 334.197723,167.437759 
	C334.197723,167.437759 334.448151,167.542786 334.303345,168.121887 
	C334.113220,175.527588 333.969055,182.356247 334.113068,189.178833 
	C334.139191,190.417572 335.344574,191.631409 336.005554,192.856750 
z"/>
<path fill="#453856" opacity="1.000000" stroke="none" 
	d="
M361.954041,167.479706 
	C362.439453,168.515213 363.328857,169.544159 363.345764,170.587280 
	C363.469696,178.222870 363.490295,185.862656 363.348999,193.497498 
	C363.326691,194.703201 362.323334,195.890762 361.773560,197.086700 
	C361.101440,195.845963 359.895996,194.625061 359.848938,193.361053 
	C359.639099,187.723221 359.760193,182.073059 359.994690,175.638260 
	C360.803131,172.392685 361.378571,169.936188 361.954041,167.479706 
z"/>
<path fill="#0C0C0C" opacity="1.000000" stroke="none" 
	d="
M257.138031,169.702362 
	C253.120560,170.188492 249.103073,170.674622 244.266373,171.003998 
	C242.870758,172.117218 242.294357,173.387177 241.505402,174.486694 
	C240.886841,173.507889 240.480865,172.699524 240.074875,171.891174 
	C240.074875,170.442856 240.074875,168.994537 240.074875,167.106873 
	C245.664490,167.106873 250.918167,167.106873 256.486206,167.586609 
	C256.913025,168.611679 257.025543,169.157013 257.138031,169.702362 
z"/>
<path fill="#1C1C1C" opacity="1.000000" stroke="none" 
	d="
M288.091064,189.349243 
	C288.480286,190.227509 288.823242,191.491348 289.222656,193.396149 
	C289.045685,194.490814 288.812195,194.944534 288.578735,195.398254 
	C288.578735,195.398270 288.516754,195.484650 288.179840,195.586761 
	C287.686890,196.039032 287.530853,196.389175 287.374817,196.739319 
	C285.193298,196.856964 283.011749,196.974609 280.305267,196.757080 
	C278.547668,195.360703 277.315063,194.299500 276.082428,193.238281 
	C276.082428,193.238281 276.094513,192.998520 275.982422,192.952911 
	C275.870331,191.229218 275.870331,189.551117 275.870331,187.989456 
	C278.690308,189.955566 280.779785,192.101089 283.287903,192.856049 
	C284.454651,193.207275 286.433929,190.859253 288.091064,189.349243 
z"/>
<path fill="#2A256C" opacity="1.000000" stroke="none" 
	d="
M192.911819,167.072281 
	C193.626068,167.988419 194.945740,168.895081 194.960266,169.822189 
	C195.094772,178.405701 195.022552,186.992920 194.931030,195.578232 
	C194.925797,196.068390 194.228226,196.551193 193.414520,196.553024 
	C192.908432,188.851776 192.840714,181.634949 192.846802,173.961334 
	C192.917664,171.360474 192.914749,169.216385 192.911819,167.072281 
z"/>
<path fill="#6F4126" opacity="1.000000" stroke="none" 
	d="
M281.264252,169.819946 
	C280.807709,170.374634 280.351166,170.929306 279.733185,171.830078 
	C278.801941,175.161621 277.887604,178.119629 277.314026,181.142273 
	C276.942657,183.099197 277.069427,185.150665 276.972961,187.159760 
	C276.294525,187.190567 275.616058,187.221375 274.937592,187.252182 
	C274.750000,184.160034 274.562378,181.067902 274.310120,177.532883 
	C274.527191,175.967056 274.808960,174.844101 275.350830,173.233917 
	C275.745728,172.181427 275.880554,171.616165 276.015411,171.050888 
	C276.648254,170.300354 277.281097,169.549820 278.355896,168.505753 
	C279.000153,167.883362 279.202393,167.554489 279.404633,167.225601 
	C279.404633,167.225601 279.603546,167.399887 279.640076,167.654785 
	C280.205841,168.546432 280.735046,169.183182 281.264252,169.819946 
z"/>
<path fill="#545455" opacity="1.000000" stroke="none" 
	d="
M332.401794,168.090210 
	C332.825317,177.067795 332.920685,186.194870 332.864075,195.783157 
	C332.408295,192.715088 331.897461,189.188736 331.847595,185.655884 
	C331.765625,179.852722 331.982666,174.045334 332.401794,168.090210 
z"/>
<path fill="#090909" opacity="1.000000" stroke="none" 
	d="
M240.109589,182.836990 
	C240.065308,181.852371 240.021027,180.867737 240.366653,179.519226 
	C241.167206,179.081467 241.577866,179.007599 242.167480,179.122101 
	C242.911026,179.200073 243.475616,179.089676 244.040207,178.979279 
	C247.033432,179.008041 250.026672,179.036819 253.458282,179.525146 
	C253.897369,180.919937 253.898056,181.855194 253.898743,182.790436 
	C250.921341,182.884644 247.943924,182.978867 244.351318,182.831253 
	C242.855896,182.855743 241.975693,183.122070 240.886307,183.183838 
	C240.487946,182.931854 240.298767,182.884415 240.109589,182.836990 
z"/>
<path fill="#3C5D8F" opacity="1.000000" stroke="none" 
	d="
M222.228470,192.772385 
	C220.527298,189.810532 218.956909,186.426361 217.347290,183.060944 
	C216.519241,181.329620 215.621323,179.631744 214.300949,177.621613 
	C213.714676,176.892914 213.582443,176.461365 213.344864,175.712814 
	C213.196426,174.743896 213.153351,174.091980 213.100677,172.932770 
	C213.133408,171.407547 213.175751,170.389603 213.218079,169.371658 
	C216.259720,177.033722 219.301361,184.695770 222.228470,192.772385 
z"/>
<path fill="#545455" opacity="1.000000" stroke="none" 
	d="
M335.992676,192.398865 
	C335.344574,191.631409 334.139191,190.417572 334.113068,189.178833 
	C333.969055,182.356247 334.113220,175.527588 334.335938,168.253693 
	C334.917847,173.392822 335.349854,178.977448 335.714020,184.566513 
	C335.873871,187.020035 335.895447,189.482559 335.992676,192.398865 
z"/>
<path fill="#504636" opacity="1.000000" stroke="none" 
	d="
M361.641479,167.376740 
	C361.378571,169.936188 360.803131,172.392685 360.053406,175.208633 
	C357.878113,176.050537 355.877045,176.532959 353.876007,177.015396 
	C353.526855,176.552643 353.177704,176.089905 352.828552,175.627151 
	C355.662018,172.842697 358.495483,170.058243 361.641479,167.376740 
z"/>
<path fill="#412820" opacity="1.000000" stroke="none" 
	d="
M192.537598,166.963303 
	C192.914749,169.216385 192.917664,171.360474 192.605438,174.087952 
	C191.503876,175.163879 190.717468,175.656448 189.931061,176.148987 
	C188.941818,176.079178 187.239090,176.292084 187.080917,175.892929 
	C186.161194,173.571930 189.518631,167.871750 192.537598,166.963303 
z"/>
<path fill="#6F4126" opacity="1.000000" stroke="none" 
	d="
M190.088593,176.530411 
	C190.717468,175.656448 191.503876,175.163879 192.531647,174.544708 
	C192.840714,181.634949 192.908432,188.851776 192.982178,196.537659 
	C192.349655,195.630753 191.276001,194.293304 191.150177,192.871964 
	C190.680542,187.566803 190.521606,182.234161 190.088593,176.530411 
z"/>
<path fill="#414A5E" opacity="1.000000" stroke="none" 
	d="
M241.095490,183.388382 
	C241.975693,183.122070 242.855896,182.855743 243.903717,182.823975 
	C243.782928,186.582520 243.601746,190.120377 243.148087,193.622955 
	C242.989014,194.851074 242.160400,195.992477 241.331757,196.609741 
	C241.049133,191.826797 241.072311,187.607590 241.095490,183.388382 
z"/>
<path fill="#504636" opacity="1.000000" stroke="none" 
	d="
M305.191895,179.290771 
	C305.735168,179.202072 306.111267,179.450317 306.652435,180.169464 
	C305.521332,186.077637 304.225098,191.514877 302.928864,196.952133 
	C302.764313,197.018631 302.599762,197.085129 302.080872,196.721954 
	C301.679871,194.451279 301.633240,192.610291 301.586578,190.769302 
	C302.732605,187.055450 303.878662,183.341583 305.191895,179.290771 
z"/>
<path fill="#2A2A2A" opacity="1.000000" stroke="none" 
	d="
M229.955063,187.210480 
	C228.093597,186.357513 226.664795,185.504776 225.236008,184.652039 
	C227.250748,184.077011 229.247406,183.159500 231.286819,183.051849 
	C232.566666,182.984253 233.910736,184.132996 235.225983,184.736023 
	C233.613220,185.560913 232.000473,186.385803 229.955063,187.210480 
z"/>
<path fill="#2A2A2A" opacity="1.000000" stroke="none" 
	d="
M321.417664,182.927307 
	C322.823975,182.929031 323.888824,182.696518 324.775909,182.994019 
	C325.846466,183.353088 326.766266,184.161636 327.751343,184.775604 
	C326.774475,185.584457 325.911713,186.722458 324.789337,187.111542 
	C323.615021,187.518661 322.100098,187.497894 320.902527,187.124268 
	C319.749512,186.764557 318.811859,185.714783 317.779572,184.968201 
	C318.852173,184.288101 319.924805,183.607986 321.417664,182.927307 
z"/>
<path fill="#E1E6E7" opacity="1.000000" stroke="none" 
	d="
M281.688538,169.788635 
	C280.735046,169.183182 280.205841,168.546432 279.758026,167.595001 
	C284.943481,164.572708 287.778046,165.365662 290.891418,170.743591 
	C287.953552,170.659271 285.033203,170.208298 281.688538,169.788635 
z"/>
<path fill="#2A2A2A" opacity="1.000000" stroke="none" 
	d="
M270.525757,182.999374 
	C271.036957,184.089966 271.101593,185.175308 271.077332,186.667816 
	C268.290527,187.084869 265.592621,187.094742 262.374023,186.665298 
	C261.908905,185.165588 261.964508,184.105209 262.020081,183.044815 
	C264.706451,183.027924 267.392853,183.011017 270.525757,182.999374 
z"/>
<path fill="#66666A" opacity="1.000000" stroke="none" 
	d="
M303.283142,196.856171 
	C304.225098,191.514877 305.521332,186.077637 306.855652,180.279846 
	C307.316650,179.614136 307.739532,179.308960 308.421631,178.974594 
	C306.999695,184.883667 305.318542,190.821930 303.283142,196.856171 
z"/>
<path fill="#504636" opacity="1.000000" stroke="none" 
	d="
M207.063385,182.694824 
	C206.220566,182.452576 205.377762,182.210327 204.208435,181.899673 
	C205.002213,178.929398 206.122482,176.027542 207.611679,173.304260 
	C208.297684,174.057846 208.614731,174.632904 208.956070,175.555145 
	C208.341370,178.166519 207.702377,180.430664 207.063385,182.694824 
z"/>
<path fill="#504636" opacity="1.000000" stroke="none" 
	d="
M201.740509,187.311676 
	C201.823639,189.606476 201.613388,192.085419 201.647476,194.854126 
	C200.870300,195.939835 199.848801,196.735764 198.827301,197.531693 
	C198.507080,197.227982 198.186844,196.924286 197.866623,196.620590 
	C199.060120,193.578995 200.253616,190.537415 201.740509,187.311676 
z"/>
<path fill="#2A2A2A" opacity="1.000000" stroke="none" 
	d="
M213.141403,169.072632 
	C213.175751,170.389603 213.133408,171.407547 212.748688,172.814972 
	C211.923294,173.150894 211.440262,173.097351 210.978622,173.021912 
	C211.000000,173.000000 210.955353,173.042343 210.996552,172.772308 
	C210.512451,172.343658 209.987137,172.185059 209.238541,172.041931 
	C208.718430,172.023697 208.420639,172.007599 208.121887,172.009094 
	C209.662521,170.767166 207.910324,164.494827 213.141403,169.072632 
z"/>
<path fill="#414A5E" opacity="1.000000" stroke="none" 
	d="
M243.914139,178.545471 
	C243.475616,179.089676 242.911026,179.200073 242.158035,178.696259 
	C241.885742,176.940430 241.801849,175.798782 241.717957,174.657135 
	C242.294357,173.387177 242.870758,172.117218 243.820679,170.974289 
	C244.058838,173.438095 243.923447,175.774887 243.914139,178.545471 
z"/>
<path fill="#E1E6E7" opacity="1.000000" stroke="none" 
	d="
M288.936066,195.545609 
	C288.812195,194.944534 289.045685,194.490814 289.339661,193.787323 
	C290.362366,191.491653 291.324585,189.445755 292.519348,187.145081 
	C293.774261,190.679123 293.046875,193.780502 288.936066,195.545609 
z"/>
<path fill="#504636" opacity="1.000000" stroke="none" 
	d="
M240.886322,183.183838 
	C241.072311,187.607590 241.049133,191.826797 241.020020,196.508011 
	C240.574600,192.553589 240.135117,188.137177 239.902618,183.278870 
	C240.298767,182.884415 240.487946,182.931854 240.886322,183.183838 
z"/>
<path fill="#B5B5B5" opacity="1.000000" stroke="none" 
	d="
M269.163086,158.091248 
	C271.249725,157.987396 273.281525,158.266708 275.761108,158.518311 
	C273.841980,158.485229 271.475098,158.479828 269.163086,158.091248 
z"/>
<path fill="#545455" opacity="1.000000" stroke="none" 
	d="
M311.269135,173.717300 
	C311.635651,171.941559 312.245728,169.963608 312.884827,167.630478 
	C317.315643,170.448502 312.067688,171.454910 311.269135,173.717300 
z"/>
<path fill="#E1E6E7" opacity="1.000000" stroke="none" 
	d="
M261.806335,182.807617 
	C261.964508,184.105209 261.908905,185.165588 261.924927,186.625183 
	C261.351288,186.775726 260.706055,186.527054 260.060791,186.278397 
	C260.571381,185.042404 261.082001,183.806412 261.806335,182.807617 
z"/>
<path fill="#545455" opacity="1.000000" stroke="none" 
	d="
M308.057373,171.390411 
	C311.456696,173.809738 307.784058,175.034775 306.399658,176.909912 
	C306.756012,175.244507 307.437469,173.500900 308.057373,171.390411 
z"/>
<path fill="#504636" opacity="1.000000" stroke="none" 
	d="
M241.505402,174.486694 
	C241.801849,175.798782 241.885742,176.940430 241.979065,178.507904 
	C241.577866,179.007599 241.167206,179.081467 240.443207,179.156250 
	C239.987091,177.019608 239.844330,174.882065 239.888214,172.317841 
	C240.480865,172.699524 240.886841,173.507889 241.505402,174.486694 
z"/>
<path fill="#E1E6E7" opacity="1.000000" stroke="none" 
	d="
M276.044098,193.568069 
	C277.315063,194.299500 278.547668,195.360703 279.888214,196.717987 
	C278.666016,195.975311 277.335876,194.936584 276.044098,193.568069 
z"/>
<path fill="#66666A" opacity="1.000000" stroke="none" 
	d="
M301.350769,190.992035 
	C301.633240,192.610291 301.679871,194.451279 301.834045,196.622162 
	C301.666077,195.039627 301.390533,193.127197 301.350769,190.992035 
z"/>
<path fill="#504636" opacity="1.000000" stroke="none" 
	d="
M203.541382,182.081024 
	C203.572403,183.281586 203.292191,184.605713 202.669342,186.034454 
	C202.627853,184.827560 202.929016,183.516083 203.541382,182.081024 
z"/>
<path fill="#414A5E" opacity="1.000000" stroke="none" 
	d="
M254.236755,182.847015 
	C253.898056,181.855194 253.897369,180.919937 253.892899,179.630997 
	C257.031158,179.935196 255.912796,181.398636 254.236755,182.847015 
z"/>
<path fill="#545455" opacity="1.000000" stroke="none" 
	d="
M347.397095,197.090958 
	C347.004730,196.007309 347.008179,195.022659 346.944702,193.666870 
	C347.630066,193.671707 349.055542,194.155472 349.015656,194.404572 
	C348.860504,195.373459 348.240173,196.267838 347.397095,197.090958 
z"/>
<path fill="#E1E6E7" opacity="1.000000" stroke="none" 
	d="
M293.074768,176.907074 
	C292.379028,176.021591 291.947388,174.948914 291.539978,173.522141 
	C292.155762,174.351990 292.747314,175.535919 293.074768,176.907074 
z"/>
<path fill="#0E0E0E" opacity="1.000000" stroke="none" 
	d="
M208.048798,172.203400 
	C208.420639,172.007599 208.718430,172.023697 209.305603,172.294449 
	C209.707077,172.665298 209.818176,172.799088 209.825302,173.224457 
	C209.458160,174.079987 209.194962,174.643967 208.931763,175.207947 
	C208.614731,174.632904 208.297684,174.057846 207.946320,173.145432 
	C207.912033,172.808060 207.975693,172.397720 208.048798,172.203400 
z"/>
<path fill="#E1E6E7" opacity="1.000000" stroke="none" 
	d="
M275.722595,171.067993 
	C275.880554,171.616165 275.745728,172.181427 275.344269,172.884460 
	C275.195038,172.376511 275.312408,171.730804 275.722595,171.067993 
z"/>
<path fill="#504636" opacity="1.000000" stroke="none" 
	d="
M257.444550,169.703781 
	C257.025543,169.157013 256.913025,168.611679 256.907898,167.807434 
	C257.260529,168.267410 257.505798,168.986313 257.444550,169.703781 
z"/>
<path fill="#3C5D8F" opacity="1.000000" stroke="none" 
	d="
M223.051147,195.789474 
	C222.518265,195.338181 222.219833,194.772232 222.016861,193.887726 
	C222.503403,194.271057 222.894485,194.972946 223.051147,195.789474 
z"/>
<path fill="#545455" opacity="1.000000" stroke="none" 
	d="
M296.971863,170.364609 
	C297.311676,169.976273 297.613495,170.061691 297.951263,170.554688 
	C297.686646,170.742615 297.335510,170.701324 296.971863,170.364609 
z"/>
<path fill="#545455" opacity="1.000000" stroke="none" 
	d="
M334.068298,167.187012 
	C333.983154,167.532730 333.768616,167.627686 333.203064,167.700943 
	C333.214355,167.431595 333.576599,167.183929 334.068298,167.187012 
z"/>
<path fill="#545455" opacity="1.000000" stroke="none" 
	d="
M297.721863,167.009598 
	C297.952515,167.468491 297.751556,167.714233 297.156036,167.840393 
	C297.084412,167.532715 297.260712,167.224594 297.721863,167.009598 
z"/>
<path fill="#E1E6E7" opacity="1.000000" stroke="none" 
	d="
M279.105225,167.264648 
	C279.202393,167.554489 279.000153,167.883362 278.496765,168.245148 
	C278.399017,167.953278 278.602417,167.628494 279.105225,167.264648 
z"/>
<path fill="#E1E6E7" opacity="1.000000" stroke="none" 
	d="
M287.695099,196.692444 
	C287.530853,196.389175 287.686890,196.039032 288.131317,195.608398 
	C288.284943,195.900482 288.150177,196.273026 287.695099,196.692444 
z"/>
<path fill="#C8CAC3" opacity="1.000000" stroke="none" 
	d="
M208.956055,175.555145 
	C209.194962,174.643967 209.458160,174.079987 210.075989,173.307007 
	C210.605545,173.079453 210.780441,173.060898 210.955353,173.042343 
	C210.955353,173.042343 211.000000,173.000000 210.975723,173.379486 
	C211.784363,174.515930 212.617294,175.272873 213.450226,176.029816 
	C213.582443,176.461365 213.714676,176.892914 213.935089,177.529541 
	C213.895523,179.307144 213.767776,180.879654 213.599182,182.955093 
	C211.650513,182.955093 209.786774,182.955093 207.493225,182.824951 
	C207.702377,180.430664 208.341370,178.166519 208.956055,175.555145 
z"/>
<path fill="#66666A" opacity="1.000000" stroke="none" 
	d="
M213.344864,175.712814 
	C212.617294,175.272873 211.784363,174.515930 210.954346,173.401398 
	C211.440262,173.097351 211.923294,173.150894 212.758301,173.322250 
	C213.153351,174.091980 213.196426,174.743896 213.344864,175.712814 
z"/>
<path fill="#66666A" opacity="1.000000" stroke="none" 
	d="
M210.996552,172.772308 
	C210.780441,173.060898 210.605545,173.079453 210.179962,173.015442 
	C209.818176,172.799088 209.707077,172.665298 209.528900,172.278976 
	C209.987137,172.185059 210.512451,172.343658 210.996552,172.772308 
z"/>
</svg>